<mxfile host="app.diagrams.net" agent="Mozilla/5.0 (Macintosh; Intel Mac OS X 10_15_7) AppleWebKit/537.36 (KHTML, like Gecko) Chrome/136.0.0.0 Safari/537.36" version="26.2.12">
  <diagram name="Page-1" id="lKMAKaY-0qhurTpgcE6G">
    <mxGraphModel dx="1811" dy="655" grid="1" gridSize="10" guides="1" tooltips="1" connect="1" arrows="1" fold="1" page="1" pageScale="1" pageWidth="850" pageHeight="1100" math="0" shadow="0">
      <root>
        <mxCell id="0" />
        <mxCell id="1" parent="0" />
        <UserObject label="&lt;font style=&quot;color: rgb(0, 204, 0);&quot;&gt;https&lt;/font&gt;://&lt;font style=&quot;color: rgb(255, 0, 0);&quot;&gt;blogpost&lt;/font&gt;.&lt;font style=&quot;color: rgb(255, 128, 0);&quot;&gt;googleapis&lt;/font&gt;.&lt;font style=&quot;color: rgb(204, 204, 0);&quot;&gt;com&lt;/font&gt;/&lt;font style=&quot;color: rgb(0, 0, 204);&quot;&gt;watch/this&lt;/font&gt;?&lt;font style=&quot;color: rgb(255, 0, 255);&quot;&gt;v=dQw4wcQ&lt;/font&gt;&amp;amp;&lt;font style=&quot;color: rgb(255, 0, 128);&quot;&gt;list=PL9tY0bvT&lt;/font&gt;#&lt;font style=&quot;color: rgb(234, 107, 102);&quot;&gt;t=42s&lt;/font&gt;" link="https://blogpost.netlify.com/watch?v=dQw4w9WgXcQ&amp;list=PL9tY0BWXOZFtQw0GLQQY3G8E0m3W3MbvT#t=42s" id="Muwx7j5lnhdJJ1_CAeqI-5">
          <mxCell style="text;html=1;align=center;verticalAlign=middle;whiteSpace=wrap;rounded=0;fontSize=15;" parent="1" vertex="1">
            <mxGeometry x="-180" y="318.13" width="550" height="30" as="geometry" />
          </mxCell>
        </UserObject>
        <mxCell id="Muwx7j5lnhdJJ1_CAeqI-7" value="" style="shape=curlyBracket;whiteSpace=wrap;html=1;rounded=1;labelPosition=left;verticalLabelPosition=middle;align=right;verticalAlign=middle;rotation=90;strokeColor=#00CC00;" parent="1" vertex="1">
          <mxGeometry x="-165" y="305" width="20" height="30" as="geometry" />
        </mxCell>
        <mxCell id="Muwx7j5lnhdJJ1_CAeqI-8" value="" style="shape=curlyBracket;whiteSpace=wrap;html=1;rounded=1;labelPosition=left;verticalLabelPosition=middle;align=right;verticalAlign=middle;rotation=90;horizontal=1;spacing=2;spacingTop=0;strokeColor=#FF0000;" parent="1" vertex="1">
          <mxGeometry x="-110" y="290" width="20" height="60" as="geometry" />
        </mxCell>
        <mxCell id="Muwx7j5lnhdJJ1_CAeqI-9" value="scheme" style="text;html=1;align=center;verticalAlign=middle;whiteSpace=wrap;rounded=0;fontSize=14;fontColor=#00CC00;" parent="1" vertex="1">
          <mxGeometry x="-185" y="290" width="60" height="30" as="geometry" />
        </mxCell>
        <mxCell id="Muwx7j5lnhdJJ1_CAeqI-10" value="&lt;font style=&quot;color: rgb(255, 0, 0);&quot;&gt;3rd level domain&lt;/font&gt;" style="text;html=1;align=center;verticalAlign=middle;whiteSpace=wrap;rounded=0;fontSize=14;fontColor=#00CC00;" parent="1" vertex="1">
          <mxGeometry x="-120" y="275" width="40" height="30" as="geometry" />
        </mxCell>
        <mxCell id="Muwx7j5lnhdJJ1_CAeqI-12" value="" style="shape=curlyBracket;whiteSpace=wrap;html=1;rounded=1;labelPosition=left;verticalLabelPosition=middle;align=right;verticalAlign=middle;rotation=90;strokeColor=#FF8000;fontColor=#FF8000;" parent="1" vertex="1">
          <mxGeometry x="-41.25" y="286.25" width="20" height="67.5" as="geometry" />
        </mxCell>
        <mxCell id="Muwx7j5lnhdJJ1_CAeqI-13" value="2nd level domain" style="text;html=1;align=center;verticalAlign=middle;whiteSpace=wrap;rounded=0;fontSize=14;fontColor=#FF8000;strokeColor=none;" parent="1" vertex="1">
          <mxGeometry x="-56.25" y="275" width="50" height="30" as="geometry" />
        </mxCell>
        <mxCell id="Muwx7j5lnhdJJ1_CAeqI-14" value="" style="shape=curlyBracket;whiteSpace=wrap;html=1;rounded=1;labelPosition=left;verticalLabelPosition=middle;align=right;verticalAlign=middle;rotation=90;horizontal=1;spacing=2;spacingTop=0;strokeColor=#CCCC00;fillColor=#CCCC00;" parent="1" vertex="1">
          <mxGeometry x="12.5" y="310" width="20" height="25" as="geometry" />
        </mxCell>
        <mxCell id="Muwx7j5lnhdJJ1_CAeqI-15" value="&lt;font style=&quot;&quot;&gt;1st level domain&lt;/font&gt;" style="text;html=1;align=center;verticalAlign=middle;whiteSpace=wrap;rounded=0;fontSize=14;fontColor=#CCCC00;" parent="1" vertex="1">
          <mxGeometry x="6.25" y="280" width="32.5" height="20" as="geometry" />
        </mxCell>
        <mxCell id="Muwx7j5lnhdJJ1_CAeqI-16" value="" style="shape=curlyBracket;whiteSpace=wrap;html=1;rounded=1;labelPosition=left;verticalLabelPosition=middle;align=right;verticalAlign=middle;rotation=90;strokeColor=#0000CC;fontColor=#FF8000;" parent="1" vertex="1">
          <mxGeometry x="68.75" y="282.5" width="20" height="67.5" as="geometry" />
        </mxCell>
        <mxCell id="Muwx7j5lnhdJJ1_CAeqI-17" value="&lt;font style=&quot;color: rgb(0, 0, 204);&quot;&gt;path&lt;/font&gt;" style="text;html=1;align=center;verticalAlign=middle;whiteSpace=wrap;rounded=0;fontSize=14;fontColor=#FF8000;strokeColor=none;" parent="1" vertex="1">
          <mxGeometry x="28.75" y="282.5" width="100" height="30" as="geometry" />
        </mxCell>
        <mxCell id="Muwx7j5lnhdJJ1_CAeqI-19" value="" style="shape=curlyBracket;whiteSpace=wrap;html=1;rounded=1;labelPosition=left;verticalLabelPosition=middle;align=right;verticalAlign=middle;rotation=-90;horizontal=1;spacing=2;spacingTop=0;strokeColor=#FF00FF;fillColor=#CCCC00;" parent="1" vertex="1">
          <mxGeometry x="152.81" y="314.36" width="20" height="73.75" as="geometry" />
        </mxCell>
        <mxCell id="Muwx7j5lnhdJJ1_CAeqI-20" value="&lt;font style=&quot;color: rgb(255, 0, 255);&quot;&gt;query: param no. 1&lt;/font&gt;" style="text;html=1;align=center;verticalAlign=middle;whiteSpace=wrap;rounded=0;fontSize=14;fontColor=#CCCC00;" parent="1" vertex="1">
          <mxGeometry x="110.63" y="366.23" width="104.37" height="20" as="geometry" />
        </mxCell>
        <mxCell id="Muwx7j5lnhdJJ1_CAeqI-21" value="" style="shape=curlyBracket;whiteSpace=wrap;html=1;rounded=1;labelPosition=left;verticalLabelPosition=middle;align=right;verticalAlign=middle;rotation=-90;horizontal=1;spacing=2;spacingTop=0;strokeColor=#FF0080;fillColor=#CCCC00;" parent="1" vertex="1">
          <mxGeometry x="252.18" y="300" width="20" height="102.49" as="geometry" />
        </mxCell>
        <mxCell id="Muwx7j5lnhdJJ1_CAeqI-22" value="&lt;font style=&quot;color: rgb(255, 0, 128);&quot;&gt;query: param no. 2&lt;/font&gt;" style="text;html=1;align=center;verticalAlign=middle;whiteSpace=wrap;rounded=0;fontSize=14;fontColor=#CCCC00;" parent="1" vertex="1">
          <mxGeometry x="215" y="366.23" width="100" height="20" as="geometry" />
        </mxCell>
        <mxCell id="Muwx7j5lnhdJJ1_CAeqI-24" value="" style="shape=curlyBracket;whiteSpace=wrap;html=1;rounded=1;labelPosition=left;verticalLabelPosition=middle;align=right;verticalAlign=middle;rotation=90;strokeColor=#FF8000;fontColor=#FF8000;" parent="1" vertex="1">
          <mxGeometry x="335" y="302.5" width="20" height="35" as="geometry" />
        </mxCell>
        <mxCell id="Muwx7j5lnhdJJ1_CAeqI-26" value="&lt;font style=&quot;&quot;&gt;fragment no. 1&lt;/font&gt;" style="text;html=1;align=center;verticalAlign=middle;whiteSpace=wrap;rounded=0;fontSize=14;fontColor=#FF8000;strokeColor=none;" parent="1" vertex="1">
          <mxGeometry x="310" y="280" width="70" height="30" as="geometry" />
        </mxCell>
        <mxCell id="Muwx7j5lnhdJJ1_CAeqI-31" value="" style="shape=curlyBracket;whiteSpace=wrap;html=1;rounded=1;labelPosition=left;verticalLabelPosition=middle;align=right;verticalAlign=middle;rotation=-90;horizontal=1;spacing=2;spacingTop=0;strokeColor=#000000;" parent="1" vertex="1">
          <mxGeometry x="-56.25" y="268.75" width="20" height="167.5" as="geometry" />
        </mxCell>
        <mxCell id="Muwx7j5lnhdJJ1_CAeqI-33" value="&lt;font style=&quot;color: rgb(0, 0, 0);&quot;&gt;hostname&lt;/font&gt;" style="text;html=1;align=center;verticalAlign=middle;whiteSpace=wrap;rounded=0;fontSize=14;fontColor=#FF8000;strokeColor=none;" parent="1" vertex="1">
          <mxGeometry x="-71.25" y="366.23" width="50" height="30" as="geometry" />
        </mxCell>
      </root>
    </mxGraphModel>
  </diagram>
</mxfile>
